<svg width="20" height="23" viewBox="0 0 20 23" fill="none" xmlns="http://www.w3.org/2000/svg">
<g id="clipboard-text">
<path id="Vector" d="M11.75 5.85857H7.75C6.79 5.85857 5 5.85857 5 2.92929C5 0 6.79 0 7.75 0H11.75C12.71 0 14.5 0 14.5 2.92929C14.5 3.95187 14.5 5.85857 11.75 5.85857ZM7.75 1.59779C6.76 1.59779 6.5 1.59779 6.5 2.92929C6.5 4.26078 6.76 4.26078 7.75 4.26078H11.75C13 4.26078 13 3.98383 13 2.92929C13 1.59779 12.74 1.59779 11.75 1.59779H7.75Z" fill="black" fill-opacity="0.25"/>
<path id="Vector_2" d="M12.75 22.8813H6.75C1.13 22.8813 0 20.1331 0 15.6912V9.30008C0 4.44279 1.65 2.36566 5.71 2.14197C6.11 2.12067 6.48 2.45088 6.5 2.89826C6.52 3.34564 6.2 3.70781 5.79 3.72911C2.95 3.89954 1.5 4.80496 1.5 9.30008V15.6912C1.5 19.6325 2.23 21.2835 6.75 21.2835H12.75C17.27 21.2835 18 19.6325 18 15.6912V9.30008C18 4.80496 16.55 3.89954 13.71 3.72911C13.3 3.70781 12.98 3.32434 13 2.88761C13.02 2.45088 13.38 2.11001 13.79 2.13132C17.85 2.36566 19.5 4.44279 19.5 9.28943V15.6806C19.5 20.1331 18.37 22.8813 12.75 22.8813Z" fill="black" fill-opacity="0.25"/>
<g id="Group 8805">
<path id="Vector_3" d="M10.0251 15.4799H9.08381C8.46881 15.4799 7.97006 14.9287 7.97006 14.2496C7.97006 14.0858 8.09756 13.95 8.25131 13.95C8.40506 13.95 8.53256 14.0858 8.53256 14.2496C8.53256 14.5971 8.78006 14.8807 9.08381 14.8807H10.0251C10.2688 14.8807 10.4713 14.6491 10.4713 14.3695C10.4713 14.0219 10.3551 13.954 10.1638 13.8821L8.65256 13.3149C8.36006 13.2071 7.96631 12.9754 7.96631 12.2604C7.96631 11.6452 8.42006 11.1499 8.97506 11.1499H9.91631C10.5313 11.1499 11.0301 11.7011 11.0301 12.3802C11.0301 12.544 10.9026 12.6798 10.7488 12.6798C10.5951 12.6798 10.4676 12.544 10.4676 12.3802C10.4676 12.0327 10.2201 11.7491 9.91631 11.7491H8.97506C8.73131 11.7491 8.52881 11.9808 8.52881 12.2604C8.52881 12.6079 8.64506 12.6758 8.83631 12.7477L10.3476 13.3149C10.6401 13.4228 11.0338 13.6544 11.0338 14.3695C11.0301 14.9806 10.5801 15.4799 10.0251 15.4799Z" fill="black" fill-opacity="0.25"/>
<path id="Vector_4" d="M9.5 16.0112C9.34625 16.0112 9.21875 15.8754 9.21875 15.7116V10.9182C9.21875 10.7545 9.34625 10.6187 9.5 10.6187C9.65375 10.6187 9.78125 10.7545 9.78125 10.9182V15.7116C9.78125 15.8754 9.65375 16.0112 9.5 16.0112Z" fill="black" fill-opacity="0.25"/>
<g id="Vector_5">
<path d="M9.5 18.1082C7.01767 18.1082 5 15.959 5 13.3149C5 10.6707 7.01767 8.52148 9.5 8.52148C11.9823 8.52148 14 10.6707 14 13.3149C14 15.959 11.9823 18.1082 9.5 18.1082ZM9.5 9.19033C7.36512 9.19033 5.62791 11.0408 5.62791 13.3149C5.62791 15.5889 7.36512 17.4394 9.5 17.4394C11.6349 17.4394 13.3721 15.5889 13.3721 13.3149C13.3721 11.0408 11.6349 9.19033 9.5 9.19033Z" fill="black" fill-opacity="0.25"/>
<path d="M4.875 13.3149C4.875 16.0205 6.94132 18.2332 9.5 18.2332C12.0587 18.2332 14.125 16.0205 14.125 13.3149C14.125 10.6092 12.0587 8.39648 9.5 8.39648C6.94132 8.39648 4.875 10.6092 4.875 13.3149ZM5.75291 13.3149C5.75291 11.1023 7.44147 9.31533 9.5 9.31533C11.5585 9.31533 13.2471 11.1023 13.2471 13.3149C13.2471 15.5274 11.5585 17.3144 9.5 17.3144C7.44147 17.3144 5.75291 15.5274 5.75291 13.3149Z" stroke="black" stroke-opacity="0.25" stroke-width="0.25"/>
</g>
</g>
</g>
</svg>
